<!DOCTYPE svg PUBLIC "-//W3C//DTD SVG 20010904//EN" "http://www.w3.org/TR/2001/REC-SVG-20010904/DTD/svg10.dtd">
<svg version="1.0" xmlns="http://www.w3.org/2000/svg" width="789px" height="505px" viewBox="0 0 7890 5050" preserveAspectRatio="xMidYMid meet">
<g id="layer101" fill="#6453af" stroke="none">
<path d="M3518 3919 c-16 -9 -18 -31 -18 -233 0 -241 3 -255 52 -242 20 5 116 135 157 214 7 13 17 22 23 20 5 -2 45 -55 87 -118 77 -114 98 -132 131 -110 21 13 27 412 7 450 -15 31 -39 36 -61 15 -13 -14 -16 -41 -16 -156 0 -143 -7 -164 -35 -110 -23 45 -71 114 -93 134 -10 10 -26 15 -35 11 -9 -3 -39 -41 -67 -85 -28 -43 -55 -79 -60 -79 -6 0 -10 54 -10 133 0 117 -2 136 -18 150 -21 20 -21 20 -44 6z m79 -306 c-4 -3 -10 -3 -14 0 -3 4 0 7 7 7 7 0 10 -3 7 -7z"/>
<path d="M3230 2754 c-389 -70 -692 -329 -813 -694 -40 -121 -50 -201 -45 -360 4 -118 10 -161 31 -231 94 -312 303 -545 598 -667 127 -52 231 -72 382 -72 202 1 350 40 521 140 60 35 71 39 78 25 5 -8 13 -13 19 -10 5 4 9 2 9 -4 0 -12 135 -78 225 -110 119 -42 362 -54 509 -25 104 21 266 90 359 151 146 97 280 254 360 423 117 247 122 583 12 824 -14 30 -25 57 -25 60 0 3 -20 37 -44 75 -132 206 -323 357 -543 430 -131 43 -216 54 -373 48 -105 -4 -155 -11 -225 -32 -109 -32 -261 -105 -257 -123 1 -8 -2 -11 -8 -7 -6 4 -17 1 -25 -5 -12 -10 -15 -10 -15 0 0 8 -3 10 -6 7 -4 -4 -20 3 -35 14 -47 33 -170 86 -265 115 -76 22 -111 27 -244 29 -85 2 -166 2 -180 -1z m391 -124 c86 -25 209 -79 209 -91 0 -5 7 -9 15 -9 10 0 14 -9 13 -24 -1 -14 -5 -23 -9 -21 -7 5 -68 -56 -68 -70 -1 -11 -52 -16 -66 -5 -27 21 -165 61 -246 72 -96 13 -230 1 -310 -27 -125 -45 -194 -89 -295 -189 -85 -86 -107 -114 -141 -186 -62 -129 -76 -194 -76 -345 0 -114 4 -140 27 -208 66 -195 166 -322 336 -424 130 -77 210 -98 380 -97 133 0 221 19 320 69 l46 23 48 -54 c26 -30 52 -51 58 -48 7 4 8 2 4 -4 -4 -7 -2 -12 4 -12 38 0 -93 -75 -184 -105 -191 -64 -412 -64 -605 1 -304 102 -537 374 -602 703 -18 92 -6 317 21 411 40 138 122 284 217 385 85 91 243 196 343 228 163 53 184 56 356 52 97 -2 150 -9 205 -25z m1059 20 c300 -43 576 -255 698 -535 59 -136 75 -215 75 -370 0 -112 -5 -156 -22 -220 -98 -354 -358 -607 -701 -680 -111 -23 -278 -23 -385 0 -86 19 -245 83 -276 111 -18 16 -16 19 41 76 39 40 65 58 75 54 8 -3 15 -1 15 5 0 6 8 2 18 -9 21 -26 115 -58 213 -73 332 -52 669 141 791 451 48 120 53 150 53 290 0 115 -3 145 -23 205 -51 152 -121 259 -227 349 -168 142 -363 203 -571 176 -92 -11 -216 -48 -238 -70 -6 -6 -18 -10 -28 -10 -22 0 -131 105 -126 121 11 32 221 114 328 129 73 10 222 10 290 0z m-680 -80 c0 -5 -2 -10 -4 -10 -3 0 -8 5 -11 10 -3 6 -1 10 4 10 6 0 11 -4 11 -10z m26 -172 c23 -24 43 -49 46 -57 5 -16 -92 -111 -114 -111 -8 0 -43 30 -79 67 -35 37 -58 63 -51 59 17 -10 117 88 107 104 -16 25 53 -21 91 -62z m-550 -19 c32 -5 82 -17 109 -26 51 -16 130 -63 107 -63 -7 0 -10 -4 -7 -10 3 -5 0 -10 -8 -10 -7 0 -23 -20 -35 -44 -13 -24 -29 -47 -37 -50 -8 -3 -36 4 -62 16 -39 17 -69 21 -153 22 -93 0 -113 -3 -175 -28 -228 -93 -349 -327 -289 -560 31 -123 130 -249 239 -304 109 -55 244 -67 356 -32 34 10 67 16 72 13 6 -4 7 -1 2 7 -6 10 -4 12 9 7 10 -4 22 -7 27 -7 4 0 6 -6 3 -14 -6 -15 33 -86 48 -86 5 0 8 -8 6 -17 -2 -10 -7 -17 -11 -15 -4 1 -14 -4 -23 -12 -32 -33 -153 -59 -269 -59 -191 0 -316 53 -455 193 -132 132 -185 257 -184 440 2 187 57 322 184 451 153 155 351 223 546 188z m1160 0 c252 -45 433 -203 521 -454 22 -65 25 -267 4 -340 -64 -222 -224 -390 -436 -456 -109 -34 -270 -31 -392 7 -51 16 -93 33 -93 38 0 17 52 116 61 116 5 0 9 7 9 16 0 18 -2 18 94 -15 188 -66 422 21 534 197 98 153 97 361 -2 516 -115 180 -358 261 -559 186 -51 -19 -56 -24 -45 -38 12 -15 11 -16 -4 -3 -10 7 -15 17 -12 22 3 5 1 9 -3 9 -5 0 -23 29 -41 65 -19 35 -38 67 -43 70 -5 4 -9 14 -9 23 0 13 2 13 15 -4 9 -12 14 -14 15 -6 0 8 6 12 13 9 6 -2 30 2 52 10 107 38 222 50 321 32z m-437 -214 c25 -53 32 -95 15 -88 -8 3 -33 -22 -61 -61 l-48 -66 -19 43 c-10 23 -29 64 -42 91 l-24 50 59 57 c32 32 58 59 57 61 0 2 9 -8 22 -22 12 -14 31 -43 41 -65z m-413 70 c4 -8 10 -13 14 -10 9 5 91 -80 108 -112 10 -19 9 -20 -10 -15 -14 3 -19 1 -14 -6 4 -7 3 -12 -2 -12 -9 0 -42 -75 -46 -105 -4 -27 -13 -25 -37 7 -13 18 -40 51 -60 73 -38 42 -58 85 -40 85 11 0 45 57 46 75 1 31 31 46 41 20z m199 -25 c3 -6 -1 -7 -9 -4 -18 7 -21 14 -7 14 6 0 13 -4 16 -10z m-472 -115 c50 -21 56 -37 40 -98 -8 -29 -12 -62 -10 -74 4 -24 -21 -41 -29 -19 -3 8 -30 22 -61 31 -47 15 -63 16 -107 6 -172 -39 -232 -217 -120 -350 58 -70 149 -89 244 -51 28 11 56 17 62 14 7 -4 8 -2 4 4 -4 7 -3 12 2 12 5 0 10 -21 10 -46 1 -26 9 -58 18 -72 15 -23 15 -26 -2 -36 -108 -64 -265 -60 -375 10 -249 155 -232 522 30 651 29 15 70 30 90 34 50 11 161 2 204 -16z m1197 -23 c88 -44 146 -108 180 -199 31 -82 26 -204 -12 -284 -61 -133 -192 -218 -333 -219 -59 0 -183 30 -189 45 -8 21 30 137 47 147 11 6 17 5 17 -1 0 -18 58 -41 104 -41 135 0 242 116 222 241 -19 117 -123 202 -228 185 -41 -7 -108 -35 -121 -51 -5 -6 -6 -2 -3 9 4 10 2 24 -3 30 -5 6 -13 31 -19 56 -5 25 -13 53 -17 63 -4 10 -3 17 4 17 6 0 11 6 11 13 0 6 10 13 23 14 12 1 42 6 67 12 80 17 166 4 250 -37z m-1115 -22 c3 -5 1 -10 -4 -10 -6 0 -11 5 -11 10 0 6 2 10 4 10 3 0 8 -4 11 -10z m395 -97 c27 -73 39 -187 29 -279 -9 -81 -28 -154 -41 -154 -4 0 -8 -9 -8 -20 0 -12 -7 -20 -17 -20 -9 0 -14 3 -11 6 3 3 -3 31 -15 62 -18 47 -21 80 -21 192 0 115 3 145 23 203 12 37 26 67 31 67 5 0 18 -26 30 -57z m-320 22 c0 27 54 -70 72 -129 26 -86 20 -171 -18 -256 -22 -49 -71 -114 -75 -99 -1 2 -3 15 -5 29 -18 121 -26 155 -34 158 -14 5 -13 109 2 114 11 4 29 109 30 177 0 32 2 33 14 16 8 -10 14 -15 14 -10z m594 0 c-4 -8 -2 -15 4 -15 15 0 32 -107 32 -208 0 -102 -17 -222 -31 -222 -4 0 -6 -6 -3 -14 3 -8 1 -17 -5 -21 -6 -3 -11 -1 -11 5 0 6 -11 26 -23 43 -38 51 -57 116 -58 197 -1 82 15 138 59 207 26 42 47 58 36 28z m-825 -139 c66 -35 81 -117 33 -175 -24 -30 -36 -35 -84 -39 -51 -4 -58 -2 -89 26 -30 27 -34 36 -33 81 0 54 12 74 59 103 36 22 76 23 114 4z m1159 -6 c39 -24 66 -80 57 -121 -4 -15 -22 -42 -41 -59 -28 -24 -44 -30 -79 -30 -49 0 -114 34 -116 60 0 10 -3 8 -9 -5 -6 -15 -9 -6 -9 32 -1 45 3 56 32 86 58 62 106 73 165 37z m-708 -85 c0 -50 -3 -65 -14 -65 -11 0 -14 15 -13 65 1 44 6 65 15 65 8 0 12 -20 12 -65z m251 26 c6 10 9 3 9 -19 0 -20 -4 -31 -10 -27 -6 4 -8 10 -5 15 3 5 1 11 -5 15 -5 3 -10 12 -9 18 0 8 3 7 6 -2 5 -11 7 -11 14 0z m-16 -241 c-7 -12 34 -77 69 -109 14 -14 26 -32 26 -41 0 -22 -38 -100 -49 -100 -5 0 -14 -15 -21 -32 -8 -23 -14 -28 -18 -18 -8 23 -83 99 -102 105 -17 5 -17 8 2 48 12 23 29 61 40 86 10 24 26 50 36 57 21 16 25 17 17 4z m-290 -22 c4 -13 16 -45 28 -71 17 -39 25 -47 42 -43 18 5 19 4 3 -8 -10 -7 -15 -16 -12 -19 9 -8 -93 -114 -115 -120 -15 -3 -23 5 -37 35 -10 22 -27 46 -38 54 -12 8 -15 14 -7 14 10 0 11 3 2 14 -7 8 -8 16 -4 18 10 4 72 82 96 121 21 33 34 34 42 5z m522 -125 c-4 -3 -10 -3 -14 0 -3 4 0 7 7 7 7 0 10 -3 7 -7z m-282 -205 c8 2 15 -2 15 -8 0 -5 -4 -10 -10 -10 -5 0 -10 -6 -10 -13 0 -16 -98 -117 -114 -117 -11 0 -106 107 -106 119 0 7 21 32 46 55 26 22 52 46 58 53 8 8 23 0 58 -35 26 -26 55 -46 63 -44z m152 -35 c-4 -3 -7 0 -7 7 0 7 3 10 7 7 3 -4 3 -10 0 -14z m-394 -8 c-3 -9 -8 -14 -10 -11 -3 3 -2 9 2 15 9 16 15 13 8 -4z"/>
</g>
<g id="layer102" fill="#f9f8fc" stroke="none">
<path d="M1023 3914 c-7 -18 13 -83 52 -169 12 -27 26 -61 30 -75 4 -14 11 -29 15 -35 3 -5 15 -32 25 -60 37 -100 58 -130 90 -130 26 0 32 6 62 75 18 41 37 86 42 100 5 14 32 79 59 145 53 128 55 160 11 160 -19 0 -29 -11 -49 -53 l-25 -52 -104 2 -105 3 -25 50 c-28 54 -65 72 -78 39z m262 -187 c3 -6 -8 -44 -25 -82 -16 -39 -30 -64 -30 -56 0 8 -3 11 -7 8 -8 -9 -55 122 -47 134 8 14 104 11 109 -4z"/>
<path d="M1768 3905 c-56 -30 -102 -83 -123 -144 -63 -185 104 -366 299 -322 63 14 92 42 75 73 -9 16 -18 17 -92 12 -97 -8 -129 4 -174 62 -38 50 -39 134 -3 187 43 62 116 90 188 71 18 -5 22 -13 22 -50 0 -42 -1 -44 -31 -44 -43 0 -69 -17 -69 -45 0 -33 27 -45 99 -45 87 0 101 16 101 116 0 41 -5 84 -11 95 -31 59 -195 78 -281 34z"/>
<path d="M2302 3918 c-9 -9 -12 -76 -12 -240 l0 -228 25 -6 c51 -13 55 2 55 206 0 162 2 189 16 194 9 3 56 6 104 6 77 0 91 3 99 18 7 14 6 25 -5 40 -14 21 -23 22 -143 22 -85 0 -131 -4 -139 -12z"/>
<path d="M2930 3906 c-87 -44 -137 -140 -127 -247 11 -128 115 -229 234 -229 49 0 119 29 157 65 100 94 102 282 4 372 -74 68 -181 84 -268 39z m156 -66 c76 -29 117 -146 80 -233 -7 -18 -28 -45 -45 -60 -46 -38 -126 -39 -171 -1 -135 114 -24 355 136 294z"/>
<path d="M3518 3919 c-16 -9 -18 -31 -18 -233 0 -241 3 -255 52 -242 20 5 116 135 157 214 7 13 17 22 23 20 5 -2 45 -55 87 -118 77 -114 98 -132 131 -110 21 13 27 412 7 450 -15 31 -39 36 -61 15 -13 -14 -16 -41 -16 -156 0 -143 -7 -164 -35 -110 -23 45 -71 114 -93 134 -10 10 -26 15 -35 11 -17 -6 -117 -155 -117 -173 0 -6 -4 -11 -10 -11 -6 0 -10 54 -10 143 0 127 -2 146 -18 160 -21 20 -21 20 -44 6z"/>
<path d="M4238 3916 c-16 -12 -18 -35 -18 -233 0 -176 3 -223 14 -232 9 -8 59 -11 152 -9 l139 3 3 29 c2 16 -2 32 -10 37 -7 5 -59 9 -115 9 l-103 0 0 55 c0 64 0 63 120 67 l75 3 3 32 c3 29 0 32 -30 37 -18 4 -62 7 -98 9 l-65 2 -3 57 c-4 68 -6 67 133 71 86 2 90 3 93 25 7 46 -11 52 -147 52 -89 -1 -131 -5 -143 -14z"/>
<path d="M4780 3910 c-19 -19 -20 -33 -20 -226 0 -122 4 -213 10 -225 10 -17 22 -19 141 -19 102 0 137 4 158 16 73 43 96 144 47 209 -29 38 -32 57 -12 74 8 6 17 31 20 55 4 24 13 52 21 62 33 44 5 85 -44 65 -33 -14 -47 -40 -56 -105 -9 -58 -23 -66 -119 -66 l-76 0 0 74 c0 54 -4 79 -16 90 -20 21 -30 20 -54 -4z m249 -256 c25 -32 27 -90 4 -116 -13 -15 -31 -18 -100 -18 l-83 0 0 73 c0 41 3 77 7 80 3 4 39 7 79 7 66 0 74 -2 93 -26z"/>
<path d="M5357 3924 c-17 -18 -1 -73 81 -269 86 -204 89 -210 119 -213 36 -4 27 -18 137 244 42 100 76 191 76 202 0 11 -7 25 -16 33 -22 18 -44 2 -71 -54 l-23 -47 -103 0 -103 0 -25 53 c-23 49 -53 70 -72 51z m251 -193 c11 -7 9 -18 -9 -62 -36 -87 -45 -91 -69 -33 -12 27 -24 61 -27 77 -5 27 -5 27 43 27 27 0 55 -4 62 -9z"/>
<path d="M6566 3914 c-14 -13 -16 -48 -16 -225 0 -126 4 -218 10 -230 10 -17 22 -19 117 -19 90 0 111 3 140 21 68 42 91 134 53 209 -30 58 -61 74 -154 80 l-81 5 -5 78 c-3 54 -10 81 -20 87 -21 13 -26 12 -44 -6z m216 -261 c23 -21 24 -89 1 -115 -13 -14 -31 -18 -85 -18 l-68 0 0 75 0 75 67 0 c48 0 72 -5 85 -17z"/>
<path d="M3230 2754 c-389 -70 -692 -329 -813 -694 -40 -121 -50 -201 -45 -360 4 -118 10 -161 31 -231 113 -374 402 -642 781 -724 111 -24 348 -17 461 14 272 73 513 268 641 518 77 151 114 305 114 473 0 169 -37 317 -121 478 -38 73 -55 96 -127 180 -20 24 -39 47 -42 51 -11 15 -138 121 -144 121 -4 0 -22 11 -40 25 -47 36 -169 90 -272 121 -76 22 -111 27 -244 29 -85 2 -166 2 -180 -1z m410 -130 c93 -28 236 -99 289 -142 76 -61 155 -140 184 -182 17 -25 34 -47 38 -50 13 -10 66 -116 92 -185 72 -195 76 -422 12 -611 -77 -228 -248 -427 -452 -528 -144 -72 -256 -98 -418 -98 -450 0 -818 305 -906 751 -18 92 -6 317 21 411 40 138 122 284 217 385 85 91 243 196 343 228 164 54 184 56 360 51 110 -3 151 -8 220 -30z"/>
<path d="M3250 2476 c-85 -16 -99 -21 -200 -69 -72 -34 -101 -56 -186 -141 -85 -86 -107 -114 -141 -186 -62 -129 -76 -194 -76 -345 0 -114 4 -140 27 -208 66 -195 166 -322 336 -424 130 -77 210 -98 380 -98 108 1 137 4 210 28 153 49 260 124 387 272 26 30 92 175 109 240 17 62 24 96 24 128 0 21 5 48 11 59 8 15 8 19 0 14 -8 -5 -11 12 -11 55 0 91 -21 167 -81 294 -48 101 -206 257 -310 307 -171 82 -316 104 -479 74z m226 -97 c81 -14 185 -48 209 -68 11 -9 32 -23 48 -31 15 -7 27 -17 27 -22 0 -4 6 -8 14 -8 23 0 140 -133 175 -200 52 -97 72 -180 72 -300 0 -64 -6 -129 -16 -165 -16 -62 -61 -162 -92 -205 -32 -45 -158 -165 -188 -180 -17 -8 -37 -20 -45 -26 -8 -7 -51 -25 -95 -39 -68 -23 -98 -27 -195 -28 -195 0 -320 51 -460 193 -132 132 -185 257 -184 440 2 187 57 322 184 451 153 155 351 223 546 188z"/>
<path d="M3293 2210 c-267 -57 -434 -322 -367 -584 69 -271 352 -421 620 -327 89 30 91 32 169 108 236 232 172 618 -127 762 -72 35 -95 41 -168 45 -47 3 -104 1 -127 -4z m245 -127 c78 -36 163 -125 193 -200 18 -44 23 -78 23 -143 1 -75 -3 -93 -30 -150 -152 -318 -601 -283 -700 56 -58 200 77 421 285 465 64 14 168 1 229 -28z"/>
<path d="M3330 1938 c-94 -25 -160 -105 -160 -194 0 -163 154 -269 296 -205 76 34 137 125 132 196 -3 55 -51 145 -92 173 -59 40 -109 49 -176 30z m109 -102 c66 -35 81 -117 33 -175 -24 -30 -36 -35 -84 -39 -51 -4 -58 -2 -89 26 -30 27 -34 36 -33 81 0 54 12 74 59 103 36 22 76 23 114 4z"/>
</g>
<g id="layer103" fill="#ffffff" stroke="none">
<path d="M1377 3908 c-8 -13 -21 -38 -28 -55 l-14 -33 -100 0 c-84 1 -104 4 -123 20 -13 11 -22 25 -19 32 5 16 -10 48 -23 48 -5 0 -7 -7 -4 -15 4 -9 0 -15 -9 -15 -33 0 -25 -50 23 -156 11 -23 22 -54 26 -68 3 -14 10 -29 15 -32 5 -3 6 3 2 13 -5 15 -3 16 8 6 7 -7 13 -28 12 -46 0 -18 13 -62 31 -97 26 -54 36 -66 59 -68 25 -3 30 2 58 65 17 37 31 78 31 90 0 13 4 21 7 18 4 -2 6 10 4 28 -3 26 -1 28 6 12 l9 -20 7 20 c5 11 27 67 50 124 45 111 47 143 7 149 -13 2 -26 -5 -35 -20z m-93 -195 c0 -13 3 -23 8 -23 5 0 6 -5 3 -10 -4 -6 -11 -8 -16 -5 -5 3 -6 -1 -3 -9 3 -9 11 -16 17 -16 6 0 2 -6 -8 -14 -11 -8 -23 -12 -26 -10 -4 2 -10 -3 -13 -12 -5 -12 -2 -15 11 -10 16 6 16 6 0 -12 -9 -10 -14 -22 -10 -27 5 -4 -4 0 -19 9 -17 11 -25 24 -23 37 3 13 -3 21 -21 25 -17 4 -22 10 -15 18 5 6 8 25 6 41 -4 43 1 46 58 43 47 -3 52 -5 51 -25z"/>
<path d="M1768 3905 c-78 -41 -138 -136 -138 -219 0 -114 99 -240 178 -229 24 4 32 2 30 -8 -2 -9 9 -15 32 -17 42 -4 113 15 105 28 -4 6 -1 10 4 10 6 0 11 -5 11 -11 0 -6 7 -3 16 5 25 25 14 60 -19 64 -16 2 -34 -1 -40 -7 -7 -5 -32 -8 -56 -5 -29 3 -41 2 -36 -5 3 -6 15 -11 26 -11 10 0 19 -5 19 -11 0 -6 -14 -9 -32 -7 -24 2 -33 8 -32 20 1 9 -4 14 -11 12 -6 -3 -32 21 -56 52 -39 51 -43 62 -44 113 0 45 5 65 25 94 27 39 85 77 119 77 11 0 21 5 21 10 0 6 9 10 20 10 11 0 20 -7 20 -15 0 -8 7 -15 15 -15 11 0 15 -12 15 -45 0 -45 0 -45 -34 -45 -32 0 -66 -20 -66 -39 0 -4 13 -17 30 -29 40 -30 121 -31 150 -2 17 17 20 33 20 100 0 74 -2 83 -26 107 -14 14 -29 22 -33 17 -3 -5 -20 -10 -38 -11 -25 -2 -30 0 -27 15 4 15 -4 17 -58 19 -50 2 -73 -3 -110 -22z m129 -182 c-4 -3 -7 0 -7 7 0 7 3 10 7 7 3 -4 3 -10 0 -14z m-20 -20 c-4 -3 -7 0 -7 7 0 7 3 10 7 7 3 -4 3 -10 0 -14z m130 -220 c-4 -3 -7 0 -7 7 0 7 3 10 7 7 3 -4 3 -10 0 -14z"/>
<path d="M1955 3920 c3 -5 8 -10 11 -10 3 0 2 5 -1 10 -3 6 -8 10 -11 10 -3 0 -2 -4 1 -10z"/>
<path d="M2348 3904 c2 -14 -1 -24 -7 -24 -6 0 -11 7 -11 16 0 8 -4 12 -10 9 -5 -3 -10 -1 -10 5 0 6 -4 9 -9 6 -5 -4 -10 -109 -10 -236 l-2 -229 26 -7 c52 -13 56 1 55 215 l-2 196 99 5 c54 3 107 11 118 17 11 7 15 13 9 13 -7 0 -14 9 -17 20 -5 20 -12 21 -120 19 -114 -2 -114 -2 -109 -25z"/>
<path d="M2980 3915 c0 -8 -9 -15 -20 -15 -11 0 -20 -6 -20 -12 0 -9 -3 -9 -9 1 -13 21 -64 -19 -98 -77 -24 -41 -28 -58 -28 -127 0 -95 21 -143 87 -199 32 -28 50 -36 73 -34 20 2 29 -1 27 -9 -3 -16 13 -16 61 1 35 13 37 13 25 -3 -12 -15 -11 -15 6 -1 11 8 27 16 38 16 10 1 22 2 27 3 21 3 83 74 101 116 29 67 27 162 -4 223 -44 87 -115 132 -206 132 -47 0 -60 -3 -60 -15z m-63 -42 c-4 -3 -7 0 -7 7 0 7 3 10 7 7 3 -4 3 -10 0 -14z m170 -34 c74 -28 117 -150 80 -230 -19 -43 -76 -101 -92 -95 -10 3 -15 -1 -15 -13 0 -13 -8 -18 -30 -19 -19 0 -30 4 -30 13 0 9 7 11 22 7 14 -3 19 -2 14 6 -4 7 -20 12 -35 12 -30 0 -79 46 -99 93 -27 64 -3 169 49 205 14 9 17 17 10 22 -18 11 97 10 126 -1z"/>
<path d="M3518 3919 c-16 -9 -18 -31 -18 -233 0 -241 3 -255 52 -242 20 5 116 135 157 214 7 13 17 22 23 20 5 -2 45 -55 87 -118 77 -114 98 -132 131 -110 12 7 16 43 18 195 3 128 0 185 -7 185 -6 0 -11 9 -11 20 0 13 -7 20 -20 20 -13 0 -20 6 -19 18 0 10 3 12 6 5 2 -7 11 -13 18 -13 20 0 25 27 8 42 -15 11 -16 11 -10 -5 5 -14 3 -16 -11 -8 -16 8 -18 5 -21 -32 -1 -23 -6 -43 -12 -45 -5 -2 -9 -50 -9 -107 0 -82 -3 -104 -15 -109 -8 -3 -15 -2 -16 2 -3 29 -12 49 -42 95 -44 66 -70 89 -90 81 -19 -7 -100 -129 -100 -150 0 -8 -4 -14 -9 -14 -4 0 -8 -9 -8 -20 0 -11 -6 -20 -14 -20 -8 0 -17 -6 -20 -12 -4 -7 -3 -2 1 12 4 14 8 87 10 164 4 120 2 141 -13 157 -20 22 -22 22 -46 8z m369 -325 c-3 -3 -12 -4 -19 -1 -8 3 -5 6 6 6 11 1 17 -2 13 -5z"/>
<path d="M4244 3915 c-4 -8 -9 -13 -14 -10 -4 2 -8 -96 -9 -219 -2 -184 0 -225 12 -235 10 -8 56 -11 153 -9 l139 3 3 29 c2 16 -2 32 -10 37 -7 5 -59 9 -115 9 l-103 0 0 55 c0 64 0 63 120 67 l75 3 3 32 c3 29 0 32 -30 37 -18 4 -62 7 -98 9 l-65 2 -3 57 c-4 68 -6 67 133 71 86 2 90 3 93 25 7 45 -11 52 -139 52 -99 0 -119 -3 -119 -15 0 -8 -4 -15 -10 -15 -5 0 -7 7 -4 15 4 8 3 15 0 15 -4 0 -9 -7 -12 -15z"/>
<path d="M4780 3910 c-19 -19 -20 -33 -20 -226 0 -122 4 -213 10 -225 10 -17 22 -19 141 -19 102 0 137 4 158 16 73 43 96 144 47 209 -29 38 -32 57 -12 74 8 6 17 31 20 55 4 24 13 52 21 62 33 44 5 85 -44 64 -16 -6 -33 -19 -36 -28 -13 -31 -23 -82 -16 -82 3 0 6 -17 7 -38 1 -20 -1 -29 -3 -19 -3 9 -9 17 -14 17 -6 0 -8 -4 -5 -8 3 -5 -38 -9 -90 -11 l-94 -2 0 75 c0 54 -4 79 -16 90 -20 21 -30 20 -54 -4z m287 -217 c-4 -3 -7 0 -7 7 0 7 3 10 7 7 3 -4 3 -10 0 -14z m-38 -39 c25 -32 27 -90 4 -116 -13 -15 -31 -18 -100 -18 l-83 0 0 73 c0 41 3 77 7 80 3 4 39 7 79 7 66 0 74 -2 93 -26z"/>
<path d="M5383 3923 c4 -3 10 -3 14 0 3 4 0 7 -7 7 -7 0 -10 -3 -7 -7z"/>
<path d="M5713 3915 c-7 -8 -10 -22 -6 -31 4 -10 2 -15 -3 -11 -6 3 -18 -7 -28 -24 l-17 -29 -105 0 c-63 0 -104 4 -104 10 0 6 -7 10 -15 10 -11 0 -14 7 -11 23 4 21 1 23 -25 19 -22 -3 -29 0 -29 12 0 9 -5 16 -10 16 -7 0 -7 -7 0 -20 6 -12 10 -29 8 -38 -4 -25 52 -161 66 -159 6 1 12 -9 13 -23 0 -14 1 -29 2 -34 1 -6 10 0 22 12 11 12 24 20 30 17 12 -8 2 -25 -16 -25 -20 0 -24 -23 -6 -38 14 -11 14 -11 -4 -6 -17 5 -16 2 5 -17 15 -13 20 -24 14 -26 -8 -3 -5 -19 9 -53 11 -27 24 -47 29 -44 5 3 16 0 25 -8 12 -9 15 -9 9 0 -4 7 -1 12 8 12 9 0 16 5 16 11 0 5 4 8 9 5 5 -3 11 4 14 15 5 19 4 20 -12 5 -22 -20 -31 -20 -31 -2 0 13 35 30 55 26 5 -1 7 2 3 6 -4 4 -3 12 2 19 21 25 129 296 124 310 -4 8 -1 15 5 15 6 0 11 7 11 15 0 11 -8 13 -32 8 -30 -6 -32 -5 -19 11 17 20 11 30 -6 11z m34 -82 c-4 -3 -10 -3 -14 0 -3 4 0 7 7 7 7 0 10 -3 7 -7z m-270 -115 c-3 -8 -6 -5 -6 6 -1 11 2 17 5 13 3 -3 4 -12 1 -19z m131 14 c9 -7 10 -15 3 -35 -7 -17 -7 -27 -1 -27 5 0 7 -7 4 -15 -4 -8 -10 -12 -15 -10 -5 3 -11 -6 -15 -20 -3 -14 -11 -25 -18 -25 -6 0 -4 -5 4 -10 12 -8 11 -10 -7 -10 -13 0 -22 3 -22 8 3 19 -2 33 -10 28 -5 -3 -12 1 -15 10 -3 8 -2 12 4 9 14 -9 12 7 -3 30 -7 11 -14 32 -16 48 -2 26 -1 27 46 27 26 0 54 -4 61 -8z m-11 -119 c-4 -3 -7 0 -7 7 0 7 3 10 7 7 3 -4 3 -10 0 -14z"/>
<path d="M5997 3912 c-15 -16 -17 -47 -17 -226 0 -124 4 -215 10 -227 10 -17 22 -19 119 -19 96 0 112 3 141 23 90 61 93 196 6 262 -26 20 -45 25 -111 27 l-80 3 -5 78 c-3 54 -10 81 -20 87 -21 13 -25 13 -43 -8z m218 -262 c11 -12 19 -36 19 -55 0 -57 -26 -75 -106 -75 l-68 0 0 68 c0 38 3 72 7 75 3 4 34 7 68 7 50 0 66 -4 80 -20z"/>
<path d="M6566 3914 c-14 -13 -16 -48 -16 -225 0 -126 4 -218 10 -230 10 -17 22 -19 117 -19 90 0 111 3 140 21 68 42 91 134 53 209 -30 58 -61 74 -154 80 l-81 5 -5 78 c-3 54 -10 81 -20 87 -21 13 -26 12 -44 -6z m209 -254 c5 -8 12 -7 23 2 10 7 13 7 7 0 -6 -6 -9 -33 -6 -59 l3 -47 13 29 c8 17 14 23 14 15 1 -8 -8 -29 -18 -46 -19 -30 -21 -31 -100 -33 l-81 -2 0 75 0 76 69 0 c39 0 73 -5 76 -10z"/>
<path d="M1022 3900 c0 -14 2 -19 5 -12 2 6 2 18 0 25 -3 6 -5 1 -5 -13z"/>
<path d="M3220 2753 c-19 -2 -41 -11 -47 -20 -7 -9 -13 -12 -13 -6 0 18 -116 -15 -210 -60 -84 -40 -210 -129 -216 -153 -3 -12 -12 -25 -20 -28 -10 -4 -13 -2 -8 7 5 8 2 8 -9 -2 -9 -7 -15 -17 -12 -21 3 -4 -1 -7 -8 -6 -37 4 -220 -258 -216 -308 0 -5 -5 -13 -13 -18 -10 -7 -10 -11 -1 -15 10 -3 9 -12 -4 -36 -8 -18 -20 -35 -26 -38 -5 -4 -18 -44 -28 -90 -24 -107 -25 -325 -4 -419 20 -87 66 -220 77 -220 4 0 8 -7 8 -16 0 -22 70 -133 137 -216 128 -161 354 -295 577 -343 110 -24 347 -17 461 14 75 19 312 130 304 141 -5 7 33 50 56 62 18 10 19 10 5 -7 -14 -17 -14 -17 5 -7 85 47 290 310 269 344 -4 6 4 19 17 29 l24 18 -25 -5 -25 -5 26 17 c30 19 50 65 42 95 -4 15 -3 20 5 15 13 -7 17 10 13 52 -1 15 2 21 8 17 6 -3 11 1 11 9 0 10 -6 13 -17 9 -16 -5 -17 -4 -2 8 28 24 39 78 39 193 0 118 -29 293 -50 306 -6 4 -11 11 -9 16 1 5 -7 14 -18 19 -14 7 -18 16 -13 30 9 28 8 33 -22 97 -28 61 -76 118 -99 118 -8 0 -15 9 -15 20 0 11 4 20 9 20 4 0 -3 11 -16 24 -13 13 -32 34 -43 47 -23 29 -149 139 -158 139 -4 0 -22 11 -39 24 -48 36 -127 73 -225 106 -100 33 -222 55 -231 42 -3 -5 -21 -13 -38 -17 -28 -5 -32 -4 -27 9 9 23 -42 21 -55 -1 -10 -17 -10 -17 -11 0 0 20 -16 23 -23 5 -4 -10 -6 -10 -6 0 -1 12 -20 13 -91 5z m-22 -27 c-7 -8 -15 -12 -17 -11 -5 6 10 25 20 25 5 0 4 -6 -3 -14z m442 -102 c93 -28 236 -99 289 -142 76 -61 155 -140 184 -182 17 -25 34 -48 39 -51 4 -3 25 -40 46 -82 22 -42 41 -74 44 -71 3 3 9 0 14 -7 4 -8 3 -10 -4 -5 -7 4 -12 1 -12 -8 0 -8 8 -20 18 -25 10 -6 12 -11 4 -11 -9 0 -10 -5 -4 -17 25 -49 44 -192 40 -306 -1 -64 0 -117 4 -117 3 0 5 -8 3 -17 -2 -10 -4 -22 -4 -26 -1 -5 -5 -6 -10 -3 -5 4 -7 -3 -4 -15 3 -12 1 -24 -4 -28 -6 -3 -18 -26 -26 -51 -9 -25 -22 -61 -31 -81 -8 -20 -12 -39 -9 -43 4 -3 1 -6 -6 -6 -7 0 -9 -5 -6 -10 9 -14 -4 -50 -17 -50 -6 0 -5 7 3 18 13 15 12 16 -2 4 -10 -8 -15 -21 -12 -33 4 -14 0 -22 -13 -25 -11 -3 -30 -21 -44 -40 -14 -19 -45 -55 -68 -79 -27 -27 -41 -48 -36 -56 4 -7 3 -10 -3 -6 -6 4 -19 0 -29 -8 -17 -13 -17 -14 -1 -9 13 5 16 2 11 -9 -3 -9 -14 -14 -25 -12 -10 2 -19 -1 -19 -7 0 -6 -3 -9 -6 -5 -4 3 -21 -5 -38 -18 -17 -13 -69 -43 -116 -66 -47 -23 -88 -46 -92 -52 -4 -6 -10 -8 -14 -4 -5 4 -14 -3 -22 -15 -7 -13 -11 -15 -8 -6 3 12 -1 16 -14 15 -10 -1 -17 -4 -15 -7 2 -4 -10 -7 -28 -7 -18 0 -72 -5 -122 -11 -61 -6 -119 -7 -180 0 -117 13 -134 14 -172 4 -27 -6 -32 -5 -27 8 3 8 13 13 22 10 9 -3 6 1 -8 9 -18 11 -27 12 -32 4 -6 -9 -8 -8 -8 1 0 7 -4 10 -10 7 -5 -3 -10 -2 -10 3 0 4 -24 19 -52 32 -260 115 -460 374 -519 669 -18 92 -6 317 21 411 40 138 122 284 217 385 85 91 243 196 343 228 164 54 184 56 360 51 110 -3 151 -8 220 -30z m667 -471 c-4 -3 -10 -3 -14 0 -3 4 0 7 7 7 7 0 10 -3 7 -7z m-70 -40 c-4 -3 -7 0 -7 7 0 7 3 10 7 7 3 -4 3 -10 0 -14z m118 -633 c-3 -5 -12 -10 -18 -10 -7 0 -6 4 3 10 19 12 23 12 15 0z m-1850 -210 c3 -5 4 -10 1 -10 -3 0 -8 5 -11 10 -3 6 -4 10 -1 10 3 0 8 -4 11 -10z m1532 -297 c-4 -3 -7 0 -7 7 0 7 3 10 7 7 3 -4 3 -10 0 -14z"/>
<path d="M3295 2484 c-11 -3 -27 -8 -35 -11 -8 -3 -21 -5 -27 -4 -7 1 -13 -5 -13 -14 0 -9 -4 -13 -10 -10 -5 3 -10 0 -10 -7 0 -8 -4 -7 -10 4 -13 21 -37 14 -144 -37 -117 -56 -317 -256 -304 -303 2 -6 -6 -18 -17 -27 -16 -13 -17 -16 -3 -11 16 5 16 3 1 -29 -9 -19 -22 -35 -28 -35 -24 0 -49 -140 -48 -270 1 -108 4 -136 27 -205 32 -94 79 -186 117 -226 14 -15 25 -30 23 -32 -2 -2 5 -12 16 -22 22 -20 28 -8 8 15 -7 8 -1 4 14 -9 15 -13 25 -28 22 -33 -3 -5 0 -7 8 -6 7 2 12 -3 10 -11 -3 -15 10 -27 86 -77 138 -91 234 -119 412 -119 108 1 137 4 210 28 153 49 260 124 387 272 24 28 100 192 108 235 1 3 4 15 9 27 10 30 24 163 17 163 -3 0 -4 28 -3 62 4 56 -14 156 -38 213 -43 103 -82 167 -145 232 -63 65 -73 71 -100 66 -27 -6 -29 -4 -17 10 16 18 8 37 -14 37 -8 0 -13 4 -10 9 3 5 -23 23 -58 40 -84 40 -116 52 -116 43 0 -4 -19 -8 -41 -9 -35 -2 -39 0 -29 12 6 7 19 11 28 9 15 -5 15 -4 -1 6 -9 6 -22 8 -28 5 -5 -4 -17 -1 -26 7 -12 9 -15 9 -9 1 4 -7 3 -13 -3 -13 -5 0 -11 5 -13 11 -4 12 -167 22 -203 13z m181 -105 c81 -14 185 -48 209 -68 11 -9 32 -23 48 -31 15 -7 27 -17 27 -22 0 -4 6 -8 14 -8 23 0 140 -133 175 -200 52 -97 72 -180 72 -300 0 -64 -6 -129 -16 -165 -16 -62 -61 -162 -92 -205 -32 -45 -158 -165 -188 -180 -17 -8 -37 -20 -45 -26 -8 -7 -51 -25 -95 -39 -68 -23 -98 -27 -195 -28 -195 0 -320 51 -460 193 -136 135 -183 253 -185 460 0 69 -4 130 -8 136 -4 7 0 14 8 18 8 3 15 12 15 20 0 8 3 16 8 18 4 2 25 39 47 83 68 138 216 268 362 317 104 35 203 44 299 27z"/>
<path d="M3293 2210 c-98 -21 -206 -84 -268 -158 -21 -26 -23 -31 -8 -26 13 5 12 2 -5 -10 -12 -10 -20 -21 -17 -25 2 -5 -3 -17 -11 -27 -9 -10 -12 -13 -8 -5 4 9 3 12 -4 8 -5 -4 -8 -16 -5 -27 4 -14 1 -20 -8 -18 -38 9 -61 -187 -34 -292 70 -275 352 -425 621 -331 45 15 89 34 99 42 60 49 128 127 154 175 36 67 64 164 47 164 -8 0 -8 2 0 8 6 4 11 34 12 67 1 43 -1 54 -8 40 -7 -16 -9 -13 -9 18 -1 27 -5 37 -17 37 -13 0 -14 3 -5 14 26 31 -19 129 -99 213 -34 36 -74 64 -132 92 -72 35 -95 41 -168 45 -47 3 -104 1 -127 -4z m229 -119 c23 -10 66 -36 95 -57 28 -22 63 -48 78 -58 14 -11 25 -26 24 -35 -1 -9 8 -49 21 -90 102 -325 -262 -606 -551 -425 -146 91 -214 275 -160 432 12 34 14 52 7 53 -6 0 -6 3 2 6 6 2 10 9 6 14 -3 5 2 9 10 9 9 0 16 4 16 10 0 5 -7 7 -16 3 -11 -4 -8 3 7 19 13 13 26 23 29 22 4 -2 26 13 50 33 50 39 116 72 170 84 53 12 163 1 212 -20z m213 -171 c3 -5 4 -10 1 -10 -3 0 -8 5 -11 10 -3 6 -4 10 -1 10 3 0 8 -4 11 -10z"/>
<path d="M3355 1931 c-5 -16 -11 -18 -33 -12 -32 10 -94 -24 -113 -61 -10 -20 -7 -19 22 7 l33 30 -29 -35 c-15 -19 -32 -34 -36 -33 -4 1 -5 -7 -2 -17 4 -16 2 -19 -11 -14 -14 5 -16 -2 -16 -50 0 -64 27 -130 67 -167 14 -13 23 -17 19 -9 -4 8 2 4 13 -10 11 -14 21 -19 21 -12 0 7 5 10 10 7 6 -4 8 -10 5 -15 -8 -13 22 -19 35 -7 10 9 11 9 6 0 -5 -10 4 -13 36 -13 48 0 158 48 138 60 -7 4 2 17 25 34 20 15 34 33 32 39 -2 7 3 18 12 25 14 10 13 11 -4 5 -16 -5 -18 -4 -9 8 35 47 -5 173 -69 217 -64 43 -142 55 -152 23z m84 -95 c15 -8 35 -26 45 -40 18 -28 22 -101 6 -111 -6 -4 -8 -10 -5 -15 3 -5 -4 -14 -15 -20 -11 -6 -18 -14 -16 -18 3 -5 0 -14 -6 -22 -8 -13 -9 -12 -5 1 5 15 -2 16 -52 12 -54 -5 -60 -3 -92 25 -30 27 -34 36 -33 81 0 54 12 74 59 103 36 22 76 23 114 4z m138 -68 c-3 -8 -6 -5 -6 6 -1 11 2 17 5 13 3 -3 4 -12 1 -19z m-17 -133 c-7 -8 -17 -15 -23 -15 -6 0 -2 7 9 15 25 19 30 19 14 0z"/>
<path d="M2751 1894 c0 -11 3 -14 6 -6 3 7 2 16 -1 19 -3 4 -6 -2 -5 -13z"/>
<path d="M2703 2043 c4 -3 10 -3 14 0 3 4 0 7 -7 7 -7 0 -10 -3 -7 -7z"/>
</g>


</svg>